<svg xmlns="http://www.w3.org/2000/svg" class="icon" role="presentation" viewBox="0 0 32 32">
            <g>
                <path d="M 2.1 28.1 h 7.1 V 32 H 2.1 Z"/>
                <path d="M 9.1 7 v -0.7 C 8.6 1.5 5.6 0 5.6 0 s -3 1.5 -3.5 6.3 V 25.4 h 7 V 7 Z"/>
            </g>
            <g>
                <path d="M 12.5 28.1 h 7.1 V 32 h -7.1 Z"/>
                <path d="M 19.5 7 v -0.7 C 19 1.5 16 0 16 0 s -3 1.5 -3.5 6.3 V 25.4 h 7 V 7 Z"/>
            </g>
            <g>
                <path d="M 22.9 28.1 H 30 V 32 h -7.1 Z"/>
                <path d="M 29.9 7 v -0.7 C 29.4 1.5 26.4 0 26.4 0 s -3 1.5 -3.5 6.3 V 25.4 h 7 V 7 Z"/>
            </g>
        </svg>